<?xml version="1.0" encoding="UTF-8"?>
<svg version="1.1" xmlns="http://www.w3.org/2000/svg" width="315" height="217">
<path d="M0 0 C1.1044899 -0.00571014 2.2089798 -0.01142029 3.34693909 -0.01730347 C4.56454422 -0.01842133 5.78214935 -0.01953918 7.03665161 -0.02069092 C8.95401375 -0.02813828 8.95401375 -0.02813828 10.91011047 -0.03573608 C14.42514795 -0.04887438 17.94016631 -0.05530917 21.45522451 -0.05974674 C23.65473404 -0.06267844 25.85423836 -0.06678369 28.05374527 -0.07125092 C34.94474065 -0.08493681 41.83572411 -0.09459505 48.72673213 -0.09845281 C56.6623585 -0.10292016 64.59781147 -0.12040154 72.53338516 -0.1494534 C78.6762409 -0.17115456 84.81904821 -0.18116175 90.96194184 -0.18249393 C94.62548176 -0.18353702 98.28885894 -0.18933672 101.95235825 -0.20731354 C106.05217516 -0.2270372 110.15163601 -0.22247191 114.25149536 -0.21600342 C115.44885818 -0.2252182 116.64622101 -0.23443298 117.87986755 -0.243927 C133.25500058 -0.1683312 146.88315552 4.19141536 158.22854614 14.89044189 C171.44452317 29.0488873 175.49287249 47.99203711 175.04104614 66.82794189 C174.26463202 84.15750516 168.14396382 100.49709454 155.41604614 112.51544189 C147.40624562 119.20153171 140.11189038 120.79117475 129.79104614 121.14044189 C130.12201294 121.59668945 130.45297974 122.05293701 130.79397583 122.52301025 C136.83990512 130.86268939 142.86625329 139.21413619 148.79104614 147.64044189 C153.00208365 153.62731087 157.25476267 159.58220901 161.54104614 165.51544189 C162.35641846 166.64901123 162.35641846 166.64901123 163.18826294 167.80548096 C165.54535663 171.07496319 167.91397102 174.32597006 170.38870239 177.50762939 C171.48505005 178.93462158 171.48505005 178.93462158 172.60354614 180.39044189 C173.22874146 181.17934814 173.85393677 181.96825439 174.49807739 182.78106689 C176.16713544 185.82671964 176.30752752 187.71875278 175.79104614 191.14044189 C174.27151489 192.83575439 174.27151489 192.83575439 171.97854614 194.26544189 C171.08393677 194.83907471 170.18932739 195.41270752 169.26760864 196.00372314 C168.73683716 196.32937256 168.20606567 196.65502197 167.65921021 196.99053955 C165.42540384 198.365504 163.21415011 199.77390012 161.00198364 201.18341064 C156.91802945 203.78105291 152.82194122 206.35846506 148.71707153 208.9229126 C147.05928802 209.97087386 145.42289787 211.05254074 143.79104614 212.14044189 C140.87698364 212.59356689 140.87698364 212.59356689 137.79104614 212.14044189 C135.51760864 209.93731689 135.51760864 209.93731689 133.41604614 206.89044189 C133.03303345 206.34613525 132.65002075 205.80182861 132.25540161 205.24102783 C131.07811594 203.55502648 129.93168308 201.8513973 128.79104614 200.14044189 C128.14135864 199.18137939 127.49167114 198.22231689 126.82229614 197.23419189 C125.51788381 195.28826529 124.22273005 193.33610914 122.93557739 191.37872314 C120.53218542 187.74955748 118.07477192 184.16108722 115.60354614 180.57794189 C111.48769039 174.60670738 107.38396532 168.62742473 103.29104614 162.64044189 C101.64975808 160.24141294 100.00826346 157.84252542 98.36672974 155.44366455 C97.34584582 153.95140876 96.3253155 152.45891098 95.3052063 150.96612549 C86.02261944 137.38563446 76.48498671 124.02290173 66.69998169 110.79937744 C65.58202003 109.28806186 64.46690678 107.77463399 63.35501099 106.2588501 C62.33729766 104.8803458 61.30693264 103.51106341 60.26223755 102.15289307 C56.79104614 97.55371697 56.79104614 97.55371697 56.79104614 93.32794189 C57.79104614 90.14044189 57.79104614 90.14044189 60.79104614 88.14044189 C63.28642273 87.92012024 63.28642273 87.92012024 66.29714966 87.96099854 C67.99019981 87.97574974 67.99019981 87.97574974 69.717453 87.99079895 C70.9392778 88.01053268 72.1611026 88.03026642 73.41995239 88.05059814 C76.00784103 88.07103339 78.59573175 88.0912073 81.18362427 88.11114502 C85.2629054 88.1524337 89.34204751 88.202525 93.4211731 88.25689697 C97.35817433 88.30825553 101.29521543 88.33514738 105.23245239 88.36309814 C106.44010757 88.38485611 107.64776276 88.40661407 108.89201355 88.42903137 C119.19330201 88.48884632 127.55748779 87.25889496 135.16604614 79.97247314 C140.11798703 74.38963594 141.19305405 67.89769161 141.06057739 60.67169189 C140.21969097 52.77467154 137.33909414 46.7850253 131.37698364 41.57794189 C124.0233362 37.49011371 116.47207451 36.71296882 108.20413208 36.87921143 C107.19793823 36.88680481 106.19174438 36.89439819 105.15505981 36.90222168 C102.98889512 36.92021761 100.82277819 36.94503632 98.65676117 36.97607803 C95.22656242 37.02393607 91.79676344 37.05082585 88.36630249 37.072052 C78.61985735 37.13602391 68.87391805 37.23717284 59.12796021 37.35284424 C53.15129593 37.4223376 47.17483672 37.46747066 41.19785309 37.49801254 C38.9251931 37.51477435 36.65258274 37.54115951 34.38014984 37.57739639 C31.20662253 37.627816 28.03425171 37.64747369 24.86038208 37.66046143 C23.45759003 37.6944957 23.45759003 37.6944957 22.02645874 37.72921753 C17.64991852 37.71643427 14.73415354 37.5623709 11.26817322 34.73400879 C9.23616707 32.60648617 7.41459289 30.60051141 5.75588989 28.17950439 C5.25637817 27.46020752 4.75686646 26.74091064 4.24221802 25.99981689 C3.49295044 24.89380127 3.49295044 24.89380127 2.72854614 23.76544189 C1.71695052 22.29921111 0.70523307 20.83306436 -0.30661011 19.36700439 C-1.02989502 18.30231934 -1.02989502 18.30231934 -1.76779175 17.21612549 C-2.71594362 15.85051695 -3.69138026 14.5033886 -4.69503784 13.17803955 C-8.21521462 8.52860936 -8.21521462 8.52860936 -8.14645386 4.26544189 C-7.83707886 3.23419189 -7.52770386 2.20294189 -7.20895386 1.14044189 C-4.65670793 -0.13568107 -2.85845596 0.00882635 0 0 Z " fill="#000000" transform="translate(12.208953857421875,1.85955810546875)"/>
<path d="M0 0 C1.24309937 -0.0127597 2.48619873 -0.02551941 3.76696777 -0.03866577 C5.13565923 -0.041728 6.50435277 -0.04395331 7.87304688 -0.04541016 C9.28438449 -0.05184426 10.69572079 -0.05857307 12.10705566 -0.06558228 C15.07970247 -0.07758679 18.05223299 -0.08126111 21.02490234 -0.08007812 C24.0411009 -0.0799171 27.05668235 -0.0935452 30.07275391 -0.12109375 C50.82598099 -0.30804844 70.01867398 -0.0268028 89.09179688 9.29052734 C89.98898437 9.70818359 90.88617188 10.12583984 91.81054688 10.55615234 C110.79930683 20.05053232 123.25650535 36.33176177 130.44726562 55.99755859 C137.42695878 78.04532576 136.85818097 104.88985683 126.42773438 125.81396484 C125.986875 126.63123047 125.54601562 127.44849609 125.09179688 128.29052734 C124.43050781 129.54736328 124.43050781 129.54736328 123.75585938 130.82958984 C120.04665864 137.44877127 115.39828868 142.89270177 110.09179688 148.29052734 C109.16947266 149.2321875 109.16947266 149.2321875 108.22851562 150.19287109 C88.32363798 168.98955426 60.84900009 172.47640944 34.74316406 172.640625 C32.80163677 172.65728907 30.86017335 172.68471377 28.91894531 172.72265625 C26.09603625 172.77736379 23.27453905 172.79927324 20.45117188 172.81396484 C19.58651306 172.83663422 18.72185425 172.85930359 17.83099365 172.88265991 C13.52321343 172.8675297 11.68967524 172.76151858 8.20898438 170.01953125 C7.16097656 168.66867432 7.16097656 168.66867432 6.09179688 167.29052734 C5.52750977 166.59572266 4.96322266 165.90091797 4.38183594 165.18505859 C3.8787793 164.49798828 3.37572266 163.81091797 2.85742188 163.10302734 C2.00204834 161.9402124 2.00204834 161.9402124 1.12939453 160.75390625 C0.5394873 159.94099121 -0.05041992 159.12807617 -0.65820312 158.29052734 C-1.27002441 157.45054199 -1.8818457 156.61055664 -2.51220703 155.74511719 C-3.74018515 154.05475025 -4.96565305 152.36255659 -6.18847656 150.66845703 C-7.72242603 148.54740822 -9.27045139 146.43757081 -10.82226562 144.32958984 C-11.64376184 143.1924232 -12.46416729 142.05446734 -13.28320312 140.91552734 C-13.9921875 139.93841797 -14.70117188 138.96130859 -15.43164062 137.95458984 C-17.05039614 135.03397804 -17.48902066 133.56721492 -16.90820312 130.29052734 C-15.75117493 128.66758728 -15.75117493 128.66758728 -13.90820312 127.29052734 C-11.24992371 126.91871643 -11.24992371 126.91871643 -8.0065918 126.92163086 C-6.7906987 126.91474747 -5.5748056 126.90786407 -4.32206726 126.90077209 C-3.00342178 126.90693039 -1.68477631 126.91308868 -0.32617188 126.91943359 C1.04848744 126.91273423 2.42313875 126.90415383 3.79777527 126.89378357 C9.62648063 126.85380887 15.45511585 126.85245473 21.28393555 126.85473633 C24.85378279 126.85478808 28.42314976 126.83528821 31.99286461 126.80540276 C33.98763639 126.79476007 35.98248871 126.80663853 37.97724915 126.81922913 C52.39016222 126.70356833 65.37047056 123.26338163 76.18554688 113.37646484 C84.72793386 104.29112953 86.51234957 94.37491367 86.29492188 82.33349609 C85.91229372 72.24284498 81.94013871 64.68310826 75.09179688 57.29052734 C64.93347792 48.87719569 52.34171685 45.20432971 39.30273438 45.14990234 C37.39621094 45.12089844 37.39621094 45.12089844 35.45117188 45.09130859 C33.45223773 45.06583198 31.45319799 45.04052404 29.45410156 45.04003906 C27.50764331 45.03670445 25.56133273 44.99997945 23.61523438 44.96240234 C22.45942871 44.95305664 21.30362305 44.94371094 20.11279297 44.93408203 C17.09179688 44.29052734 17.09179688 44.29052734 14.82104492 41.98071289 C12.05717812 37.68097432 12.05717812 37.68097432 10.90039062 35.57568359 C10.51802246 34.89610596 10.1356543 34.21652832 9.74169922 33.51635742 C9.34160645 32.8024585 8.94151367 32.08855957 8.52929688 31.35302734 C4.73971859 24.69061116 0.56564691 18.68809546 -4.50415039 12.93334961 C-6.78901357 10.23756658 -7.87220142 8.56446759 -8.33789062 5.02099609 C-7.50032409 -0.3013585 -4.73203913 0.03291574 0 0 Z " fill="#000000" transform="translate(180.908203125,-0.29052734375)"/>
</svg>
